<svg width="147" height="147" viewBox="0 0 147 147" fill="none" xmlns="http://www.w3.org/2000/svg">
<circle cx="73.5" cy="73.5" r="73.5" fill="black"/>
<path d="M13.314 82H8.5122L13.9223 65.6098H20.0046L25.4146 82H20.6128L17.0274 70.1235H16.8994L13.314 82ZM12.4177 75.5335H21.4451V78.8628H12.4177V75.5335ZM29.2401 82L24.4063 65.6098H29.3681L31.609 75.6936H31.737L34.3941 65.6098H38.2995L40.9566 75.7256H41.0846L43.3255 65.6098H48.2874L43.4535 82H39.1959L36.4108 72.8445H36.2828L33.4977 82H29.2401ZM49.7279 82V65.6098H56.8026C58.0191 65.6098 59.0835 65.8498 59.9958 66.33C60.9082 66.8102 61.6178 67.4851 62.1246 68.3548C62.6315 69.2245 62.8849 70.2409 62.8849 71.404C62.8849 72.5777 62.6235 73.5941 62.1006 74.4531C61.5831 75.3121 60.8548 75.9737 59.9158 76.4379C58.9821 76.9021 57.891 77.1341 56.6425 77.1341H52.4169V73.6768H55.7462C56.2691 73.6768 56.7146 73.5861 57.0827 73.4047C57.4562 73.218 57.7416 72.9539 57.939 72.6124C58.1418 72.271 58.2431 71.8681 58.2431 71.404C58.2431 70.9344 58.1418 70.5343 57.939 70.2035C57.7416 69.8674 57.4562 69.6113 57.0827 69.4352C56.7146 69.2538 56.2691 69.1631 55.7462 69.1631H54.1776V82H49.7279ZM74.5694 82V85.1372H63.4611V82H74.5694Z" fill="white"/>
<path d="M90.0313 71.7561H85.5175C85.4855 71.3826 85.4002 71.0438 85.2614 70.7397C85.1281 70.4356 84.9413 70.1742 84.7012 69.9554C84.4665 69.7313 84.181 69.5606 83.8449 69.4432C83.5088 69.3205 83.1273 69.2591 82.7005 69.2591C81.9535 69.2591 81.3213 69.4405 80.8037 69.8034C80.2915 70.1662 79.9021 70.6864 79.6353 71.3639C79.3739 72.0415 79.2431 72.8552 79.2431 73.8049C79.2431 74.8079 79.3765 75.6482 79.6433 76.3258C79.9154 76.9981 80.3075 77.505 80.8197 77.8464C81.3319 78.1825 81.9482 78.3506 82.6684 78.3506C83.0793 78.3506 83.4474 78.2999 83.7729 78.1986C84.0983 78.0918 84.3811 77.9398 84.6212 77.7424C84.8613 77.545 85.056 77.3075 85.2054 77.0301C85.3601 76.7473 85.4642 76.4299 85.5175 76.0777L90.0313 76.1098C89.9779 76.8034 89.7832 77.5103 89.447 78.2306C89.1109 78.9455 88.6334 79.6071 88.0145 80.2153C87.4009 80.8182 86.6406 81.3037 85.7336 81.6719C84.8266 82.04 83.7729 82.2241 82.5724 82.2241C81.0678 82.2241 79.718 81.9013 78.5229 81.2557C77.3331 80.6101 76.3914 79.6604 75.6978 78.4066C75.0095 77.1528 74.6654 75.6189 74.6654 73.8049C74.6654 71.9802 75.0175 70.4436 75.7218 69.1951C76.4261 67.9413 77.3758 66.9943 78.5709 66.354C79.766 65.7085 81.0998 65.3857 82.5724 65.3857C83.6075 65.3857 84.5598 65.5271 85.4295 65.8098C86.2992 66.0926 87.0621 66.5061 87.7184 67.0503C88.3746 67.5892 88.9028 68.2534 89.303 69.0431C89.7031 69.8327 89.9459 70.737 90.0313 71.7561ZM107.928 73.8049C107.928 75.6296 107.573 77.1688 106.864 78.4226C106.154 79.6711 105.196 80.6181 103.991 81.2637C102.785 81.904 101.44 82.2241 99.957 82.2241C98.4631 82.2241 97.1133 81.9013 95.9075 81.2557C94.707 80.6048 93.752 79.6551 93.0424 78.4066C92.3381 77.1528 91.986 75.6189 91.986 73.8049C91.986 71.9802 92.3381 70.4436 93.0424 69.1951C93.752 67.9413 94.707 66.9943 95.9075 66.354C97.1133 65.7085 98.4631 65.3857 99.957 65.3857C101.44 65.3857 102.785 65.7085 103.991 66.354C105.196 66.9943 106.154 67.9413 106.864 69.1951C107.573 70.4436 107.928 71.9802 107.928 73.8049ZM103.35 73.8049C103.35 72.8232 103.22 71.9962 102.958 71.3239C102.702 70.6463 102.321 70.1341 101.814 69.7873C101.312 69.4352 100.693 69.2591 99.957 69.2591C99.2208 69.2591 98.5992 69.4352 98.0923 69.7873C97.5908 70.1341 97.2093 70.6463 96.9479 71.3239C96.6918 71.9962 96.5637 72.8232 96.5637 73.8049C96.5637 74.7866 96.6918 75.6162 96.9479 76.2938C97.2093 76.9661 97.5908 77.4783 98.0923 77.8304C98.5992 78.1772 99.2208 78.3506 99.957 78.3506C100.693 78.3506 101.312 78.1772 101.814 77.8304C102.321 77.4783 102.702 76.9661 102.958 76.2938C103.22 75.6162 103.35 74.7866 103.35 73.8049ZM116.293 82H109.987V65.6098H116.229C117.915 65.6098 119.372 65.9379 120.599 66.5941C121.831 67.245 122.781 68.1841 123.448 69.4112C124.12 70.633 124.456 72.0976 124.456 73.8049C124.456 75.5122 124.123 76.9794 123.456 78.2066C122.789 79.4284 121.845 80.3674 120.623 81.0236C119.401 81.6745 117.958 82 116.293 82ZM114.437 78.2226H116.133C116.944 78.2226 117.635 78.0918 118.206 77.8304C118.782 77.569 119.22 77.1181 119.518 76.4779C119.823 75.8377 119.975 74.9466 119.975 73.8049C119.975 72.6631 119.82 71.7721 119.51 71.1319C119.206 70.4916 118.758 70.0408 118.166 69.7793C117.579 69.5179 116.859 69.3872 116.005 69.3872H114.437V78.2226ZM126.515 82V65.6098H138.328V69.1951H130.965V72.0122H137.719V75.5976H130.965V78.4146H138.296V82H126.515Z" fill="#FF7B0F"/>
</svg>
